<svg width="56" height="58" viewBox="0 0 56 58" fill="none" xmlns="http://www.w3.org/2000/svg">
<g clip-path="url(#clip0_228_673)">
<path d="M38.9376 35.1364C39.7932 36.9421 39.5667 38.508 38.3229 39.914C40.0808 42.6789 39.8472 44.3937 37.4385 46.1631C38.4774 48.1105 38.33 49.9053 36.8093 51.2713C37.043 52.4158 37.4421 53.4295 37.4133 54.4322C37.363 56.2851 35.9717 57.6149 34.1418 57.6294C28.2136 57.6766 22.2818 57.6585 16.3535 57.633C16.0192 57.633 15.6237 57.3896 15.3613 57.1462C14.5093 56.3505 13.5135 55.9727 12.3307 55.86C12.2947 56.0708 12.2516 56.2379 12.2444 56.4087C12.1941 57.9346 12.133 58.0036 10.659 58.0036C7.57445 58.0036 4.4899 58.0036 1.40535 58.0036C0.204606 58.0036 -0.00390625 57.7893 -0.00390625 56.5758C-0.00390625 50.007 -0.00390625 43.4419 -0.00390625 36.8731C-0.00390625 35.5942 0.132705 35.4561 1.38019 35.4525C4.3461 35.4525 7.30841 35.4343 10.2743 35.4561C12.115 35.4707 12.1545 35.1509 12.3091 37.2509C13.2942 37.2546 13.8118 36.8803 14.0671 35.9866C15.4871 30.9946 16.9036 26.0063 18.3236 21.0143C18.6795 19.7572 18.8629 19.6555 20.0888 19.9933C20.344 20.066 20.6065 20.1169 20.93 20.1932C21.0019 15.4083 22.7132 11.39 26.2543 8.24729C28.9865 5.82396 32.2257 4.59958 35.8459 4.48332C43.0863 4.2508 49.5142 9.28275 51.1464 16.5091C52.1134 20.7854 51.3621 24.8146 48.9606 28.4732C46.5807 32.0991 43.1941 34.2681 38.934 35.1437L38.9376 35.1364ZM19.8371 21.6319C19.7868 21.7918 19.7509 21.9044 19.7185 22.017C18.3524 26.7729 16.9359 31.5141 15.6453 36.2918C15.2499 37.7596 14.3475 38.4935 13.0389 38.835C12.3666 39.0094 12.23 39.3364 12.2336 39.9722C12.2552 44.4228 12.2444 48.8698 12.248 53.3205C12.248 53.6111 12.2804 53.8981 12.2983 54.1924C13.8226 54.4213 15.178 54.8319 16.3032 55.8419C16.4937 56.0126 16.8497 56.049 17.1301 56.049C22.7024 56.0599 28.2711 56.0635 33.8434 56.0526C35.1125 56.0526 35.907 55.2606 35.9106 54.0544C35.9106 52.8372 35.1376 52.0743 33.8506 52.0561C32.9303 52.0416 32.01 52.0561 31.0717 52.0561V50.4139C32.276 50.4139 33.4084 50.4139 34.5445 50.4139C35.3318 50.4139 35.9357 50.1196 36.2845 49.3748C36.9747 47.8961 36.076 46.4356 34.4438 46.4138C33.3186 46.3993 32.1933 46.4138 31.086 46.4138V44.8079C32.7469 44.8079 34.3324 44.8297 35.9142 44.8007C37.3162 44.7752 38.1431 43.6308 37.8016 42.2538C37.5607 41.2765 36.9352 40.7969 35.8207 40.786C34.2425 40.7715 32.6643 40.7824 31.0609 40.7824V39.1583C32.693 39.1583 34.2712 39.1438 35.8531 39.1656C36.6476 39.1765 37.2695 38.8895 37.6398 38.181C38.3984 36.7423 37.4888 35.1764 35.8782 35.1691C31.9848 35.151 28.0914 35.1655 24.1979 35.1618C22.972 35.1618 22.7132 34.8167 23.0439 33.6105C23.4789 32.041 23.9786 30.486 24.3669 28.9055C25.1722 25.6139 23.1805 22.3985 19.8407 21.6392L19.8371 21.6319ZM36.3204 6.03105C35.5187 6.11462 34.7098 6.14732 33.9153 6.28538C27.2609 7.44799 22.3824 13.3991 22.5694 20.1278C22.5802 20.5056 22.6952 21.0288 22.954 21.2323C25.334 23.1033 26.3334 25.5303 26.0674 28.5458C26.035 28.8983 26.2471 29.3706 26.4988 29.6394C29.6768 33.0219 33.7607 34.1518 38.1251 33.596C46.3362 32.5496 50.8624 24.8073 49.7946 17.9297C48.7377 11.1284 43.1007 6.09645 36.3168 6.03105H36.3204ZM1.657 37.0547V56.3542H10.6194V37.0547H1.657ZM28.7493 33.487C27.6096 32.6223 26.5671 31.8339 25.4454 30.9837C25.2045 31.823 24.9781 32.6186 24.7264 33.487H28.7493Z" fill="#3556D7"/>
<path d="M18.033 19.8843H16.5195C16.5231 16.0658 17.5118 12.5525 19.525 9.35172C22.534 4.58136 26.787 1.50043 32.2838 0.39958C43.7053 -1.88932 54.4365 5.91474 55.8457 17.4682C57.2729 29.1925 48.6736 37.7087 41.0305 39.1656C40.9191 38.7187 40.8076 38.2682 40.6998 37.8176C51.0967 34.9692 55.9679 24.7128 54.0051 16.0113C51.9954 7.10642 44.1798 1.07172 35.1347 1.59853C25.9493 2.13624 18.1768 9.80224 18.0366 19.8843H18.033Z" fill="#3556D7"/>
<path d="M37.0255 27.4305V30.4969H35.476V27.4014C34.0452 27.4159 32.7977 27.0563 32.1147 25.8101C31.7048 25.058 31.5718 24.1533 31.2734 23.1724H33.0027C33.0314 23.4921 33.035 23.8191 33.0925 24.1352C33.2723 25.127 33.9482 25.7338 34.9512 25.7737C35.6666 25.8028 36.3892 25.8101 37.1046 25.7628C38.4024 25.6756 39.3875 24.6148 39.4306 23.3214C39.4701 22.0824 38.5786 20.9743 37.3167 20.7781C36.4036 20.6364 35.4581 20.6691 34.5665 20.4511C32.5029 19.9498 31.5107 18.6673 31.4891 16.6726C31.4676 14.7652 32.7115 13.1303 34.5881 12.6035C34.8433 12.5308 35.1022 12.4691 35.4581 12.3746V9.38086H36.9932V12.4C38.4851 12.44 39.7865 12.8251 40.466 14.1585C40.8398 14.8924 40.9297 15.7716 41.1814 16.7053H39.5492C39.5169 16.5237 39.4701 16.3566 39.4558 16.1858C39.312 14.6453 38.6828 14.0677 37.1298 14.0604C36.5905 14.0604 36.0513 14.0422 35.512 14.0677C34.1782 14.1294 33.1572 15.154 33.0674 16.5019C32.9811 17.7989 33.6821 18.6891 35.077 18.9615C35.6594 19.0742 36.2634 19.1214 36.8601 19.1359C39.0819 19.2013 40.8327 20.7781 40.9837 22.8781C41.149 25.1488 39.6966 26.9691 37.421 27.3433C37.3347 27.3578 37.2484 27.3796 37.0255 27.4268V27.4305Z" fill="#3556D7"/>
</g>
<defs>
<clipPath id="clip0_228_673">
<rect width="56" height="58" fill="white"/>
</clipPath>
</defs>
</svg>
