<svg width="48" height="55" viewBox="0 0 48 55" fill="none" xmlns="http://www.w3.org/2000/svg">
<g clip-path="url(#clip0_228_651)">
<path d="M31.5238 27.51C32.3575 28.0316 33.2197 28.6495 34.1455 29.1375C36.7057 30.4851 39.3691 31.6492 41.8548 33.1267C45.3475 35.2041 47.741 38.2709 47.9779 42.5041C48.1052 44.7673 47.5918 47.0775 47.2583 49.3497C47.1004 50.4175 46.214 50.9861 45.2509 51.1943C40.6109 52.1972 35.9905 53.3523 31.3044 54.0597C26.1576 54.8365 20.9405 54.8007 15.7893 53.9164C11.6516 53.2068 7.54902 52.2867 3.43768 51.4249C1.71768 51.0645 0.653645 50.0101 0.48691 48.1588C0.309205 46.1642 -0.125184 44.145 0.028388 42.175C0.317981 38.4724 2.40656 35.6674 5.37488 33.7333C7.94612 32.0566 10.774 30.7896 13.4791 29.3233C14.5256 28.7569 15.5457 28.1413 16.7151 27.4697C15.5567 25.7572 14.5563 24.2081 13.4813 22.7127C12.4194 21.233 11.6275 19.6772 11.6779 17.7878C11.7064 16.6932 12.0772 15.7753 12.9131 15.0321C13.1478 14.8239 13.2882 14.3561 13.2707 14.0181C13.1259 11.3026 12.8824 8.59171 12.799 5.87406C12.7814 5.26741 13.1105 4.43465 13.5625 4.06081C20.4556 -1.64536 28.3558 -1.03199 34.4548 4.00036C35.113 4.54434 35.4157 5.17562 35.3433 6.033C35.1349 8.55589 34.9594 11.0833 34.7313 13.6062C34.6698 14.2733 34.683 14.7792 35.2731 15.2739C36.4184 16.2343 36.561 17.6289 36.2406 18.9698C35.8084 20.7764 35.1854 22.5381 33.6146 23.7246C33.5093 23.8029 33.4369 23.9372 33.371 24.0604C32.7919 25.1304 32.2193 26.2049 31.5194 27.5123L31.5238 27.51ZM24.3981 11.9765C22.2744 12.075 20.267 12.1153 18.2683 12.2742C15.5611 12.4891 15.5435 12.5742 15.221 15.2694C15.1728 15.6768 14.8525 16.3395 14.5826 16.3798C13.354 16.5656 13.3233 17.4162 13.501 18.2803C13.6853 19.1758 13.931 20.1137 14.3896 20.886C15.2934 22.406 16.2763 23.8992 17.393 25.2602C18.3649 26.4445 19.475 27.566 20.6948 28.4749C22.2788 29.6568 24.126 29.8829 26.0084 29.1621C27.7284 28.5017 29.1412 27.3668 30.2272 25.8915C31.5172 24.141 32.7655 22.3434 33.8449 20.4562C34.3298 19.6078 34.4153 18.4975 34.5535 17.4879C34.593 17.2036 34.2135 16.6103 33.9722 16.579C32.8577 16.4357 32.8006 15.688 32.7611 14.8105C32.68 12.9435 32.3268 12.4936 30.5146 12.3234C28.4458 12.1287 26.366 12.0839 24.4003 11.9809L24.3981 11.9765ZM37.2827 32.6901C38.3599 34.9645 38.7614 37.3352 38.7461 39.7865C38.7417 40.6528 38.858 41.2483 39.7684 41.7184C41.1067 42.4123 41.6244 44.0957 41.2054 45.4769C40.7535 46.9656 39.5271 47.9036 38.0243 47.9125C36.4973 47.9215 35.1942 46.9455 34.7378 45.4456C34.321 44.0778 34.7532 42.3877 35.9598 41.8348C37.0677 41.3288 37.105 40.5722 37.0348 39.6141C36.9975 39.0925 37.0085 38.5687 36.9537 38.0493C36.7145 35.8085 35.9949 33.7535 34.6567 31.9469C34.6128 32.229 34.6698 32.4819 34.6961 32.7349C34.9221 34.866 35.0691 36.9972 33.8669 38.9179C31.1728 43.2205 28.4524 47.5051 25.7495 51.801C25.5871 52.0584 25.4599 52.3405 25.2822 52.6785C25.9842 52.6785 26.5305 52.6942 27.0724 52.6763C32.4716 52.4882 37.7018 51.2324 42.9386 50.0302C46.2491 49.2714 45.5449 49.39 46.1 46.6477C46.8612 42.8779 46.225 39.4551 43.4695 36.63C41.7166 34.8325 39.5271 33.74 37.2849 32.6856L37.2827 32.6901ZM7.45469 47.7894C7.8803 47.9013 8.205 47.8901 8.35637 48.0491C8.6328 48.3423 8.97285 48.7408 8.96627 49.0878C8.95969 49.3564 8.50556 49.7549 8.18086 49.8534C6.97203 50.2205 5.78733 49.3005 5.76759 48.0133C5.75443 47.044 5.78295 46.0724 5.85973 45.1076C5.97381 43.6906 6.31825 42.1885 7.55122 41.5079C9.03428 40.6908 9.28 39.5536 9.19224 38.1008C9.18786 38.0269 9.20541 37.9531 9.22296 37.8792C9.63321 36.1711 10.0435 34.4631 10.4713 32.6812C9.04745 33.5229 7.54464 34.2952 6.16468 35.2556C3.44427 37.1494 1.81421 39.773 1.73523 43.1936C1.70232 44.6711 1.95242 46.1575 2.1038 47.6372C2.23324 48.9132 2.95064 49.6362 4.19238 49.8601C9.07816 50.7399 13.9552 51.6644 18.8497 52.4994C20.1046 52.7143 21.4056 52.6539 22.8514 52.73C22.5574 52.1838 22.4192 51.8816 22.2415 51.604C19.6461 47.5029 17.0661 43.3928 14.4378 39.3141C13.4045 37.7113 13.0359 35.9786 13.1632 34.1072C13.2092 33.4266 13.3299 32.7528 13.4177 32.0745C11.4498 34.584 10.7324 37.4494 10.9254 40.6304C12.7332 41.2012 13.7709 42.4616 14.0495 44.3151C14.2206 45.4546 14.2908 46.6119 14.3479 47.7648C14.4049 48.8841 13.7797 49.5019 12.7463 49.6743C12.0684 49.7862 11.204 49.9519 11.0197 49.0139C10.8245 48.02 11.6801 47.9528 12.3778 47.8499C12.4348 47.8409 12.4809 47.767 12.6871 47.5947C12.5533 46.5671 12.5006 45.4098 12.2286 44.3062C11.9149 43.0346 10.8771 42.2444 9.89867 42.2982C8.95092 42.3496 8.02071 43.169 7.77719 44.4091C7.56438 45.4904 7.5578 46.6142 7.45469 47.7917V47.7894ZM33.3316 11.0743C33.4215 9.49162 33.5663 7.71418 33.5904 5.9345C33.5948 5.592 33.2065 5.13309 32.8796 4.90923C26.9934 0.888724 21.252 0.423097 15.0346 5.10399C14.7932 5.28531 14.4905 5.61215 14.4971 5.86511C14.5344 7.67837 14.644 9.49162 14.7186 11.0228C20.9624 10.0804 27.0483 9.80503 33.3337 11.0721L33.3316 11.0743ZM18.5514 29.2696C20.4118 34.2616 22.2327 39.1485 24.0821 44.1136C25.8329 39.135 27.5441 34.2661 29.2422 29.4375C26.1049 31.732 22.7768 32.2335 18.5514 29.2696ZM31.3329 29.4486C31.1925 29.6971 31.0806 29.8426 31.0214 30.0083C29.1303 35.354 27.2128 40.6908 25.3809 46.0567C25.0255 47.0955 25.0058 48.2528 24.8303 49.3564C25.2537 49.1482 25.4445 48.8863 25.6179 48.6132C27.6516 45.3919 29.5844 42.1012 31.7498 38.9761C32.974 37.2098 33.2262 35.3764 32.9783 33.3796C32.8028 31.9626 32.5659 30.5276 31.3329 29.4486ZM16.8072 29.4128C14.7252 31.5955 14.3479 35.8734 15.8924 38.3067C18.0533 41.7139 20.2209 45.1165 22.3885 48.5192C22.5749 48.8102 22.7899 49.0833 22.994 49.3631C23.1124 49.3094 23.2309 49.2557 23.3494 49.202C22.0484 42.3429 19.1744 36.0144 16.8072 29.4106V29.4128ZM39.5402 44.5457C39.549 43.6637 38.8031 42.9182 37.9255 42.9317C37.0831 42.9451 36.3832 43.6413 36.3635 44.483C36.3438 45.3695 37.0875 46.1105 37.976 46.0903C38.836 46.0702 39.5337 45.3829 39.5424 44.5457H39.5402Z" fill="#3556D7"/>
<path d="M25.1049 5.04139C25.7784 5.216 26.871 4.81529 26.8534 6.01965C26.8359 7.22849 25.7214 6.73824 25.0303 6.98001C24.7451 7.61577 25.2256 8.84923 24.0365 8.85147C22.9527 8.85147 23.1567 7.79038 23.047 7.01135C22.3713 6.71809 21.0638 7.21282 21.2327 5.88982C21.2875 5.46001 22.2463 5.15108 22.8737 4.9026C23.3235 4.37205 22.7552 2.98413 24.076 3.17217C24.5345 3.23709 24.8636 4.22654 25.2541 4.79515C25.2058 4.87797 25.1554 4.9608 25.1071 5.04139H25.1049Z" fill="#3556D7"/>
</g>
<defs>
<clipPath id="clip0_228_651">
<rect width="48" height="55" fill="white"/>
</clipPath>
</defs>
</svg>
