<svg width="30" height="64" viewBox="0 0 30 64" fill="none" xmlns="http://www.w3.org/2000/svg">
<g clip-path="url(#clip0_228_681)">
<path d="M22.8999 53.7355C22.882 53.7297 22.8611 53.7441 22.8611 53.7642C22.8611 54.7133 22.8761 55.5272 22.8611 56.3383C22.8163 58.4521 21.4579 59.824 19.4425 59.8211C17.4421 59.8183 16.0866 58.4205 16.0598 56.3124C16.0448 55.1936 16.0598 54.0748 16.0598 52.8784C16.0598 52.864 16.0478 52.8497 16.0299 52.8497H14.1221C14.1042 52.8497 14.0922 52.8612 14.0922 52.8784C14.0922 54.1266 14.134 55.4007 14.0833 56.6719C14.0056 58.5787 12.5218 59.87 10.5482 59.8183C8.93298 59.7751 7.57749 58.6247 7.35356 57.0745C7.29087 56.6489 7.29385 56.2117 7.29385 55.7774C7.29087 50.3792 7.29385 44.9838 7.29385 39.5855C7.29385 39.2001 7.29385 38.8118 7.29385 38.4379C7.29385 38.4236 7.28191 38.4121 7.26698 38.4092C6.18617 38.2884 5.26061 38.3689 4.43657 37.6614C3.78868 37.1063 3.45727 36.2867 3.45428 35.4526C3.43935 30.0917 3.42443 24.7337 3.46324 19.3728C3.47817 17.0576 5.51738 15.0559 8.00444 15.0185C12.7069 14.9466 17.4123 14.9495 22.1147 15.0157C24.7361 15.0531 26.7097 17.0893 26.7186 19.6202C26.7395 24.6848 26.644 29.7495 26.7664 34.8113C26.8171 36.8964 25.7662 38.5616 22.9089 38.3517C22.891 38.3517 22.8761 38.3632 22.8761 38.3804C22.8761 39.0678 22.8761 39.7494 22.8761 40.431C22.8761 43.8966 22.894 47.3593 22.8611 50.8249C22.8552 51.5037 23.0791 51.7769 23.7479 52.0242C25.1422 52.5419 26.5813 53.0654 27.8084 53.862C30.7522 55.7688 30.7314 59.0072 27.8353 60.9802C25.8229 62.352 23.515 63.0308 21.1235 63.4334C15.4746 64.3825 9.8884 64.2559 4.52614 62.1076C3.21244 61.5812 1.96443 60.6897 0.976177 59.6975C-0.25989 58.4579 -0.316617 56.4936 0.85675 55.1994C1.68378 54.2877 2.80639 53.6032 3.91109 52.9935C3.9917 52.9503 4.0962 52.9474 4.21563 52.9705C4.85456 53.0884 5.20986 53.7901 4.92323 54.3538C4.88143 54.4372 4.82769 54.512 4.762 54.5753C4.22757 55.0757 3.47518 55.3547 2.91089 55.8321C1.67482 56.8876 1.69274 58.0064 2.94075 59.0561C4.35894 60.2468 6.08167 60.8507 7.87606 61.2563C13.5548 62.539 19.1858 62.4958 24.6884 60.4769C25.6945 60.1087 26.644 59.4731 27.462 58.7858C28.4443 57.9632 28.4085 56.9652 27.5188 56.065C26.2976 54.8312 24.7093 54.2589 22.9059 53.7268L22.8999 53.7355ZM9.26439 38.1561C9.26439 44.1842 9.26141 50.2152 9.26439 56.2434C9.26439 57.3362 9.79584 57.9575 10.6856 57.9632C11.5604 57.969 12.1247 57.3161 12.1456 56.2635C12.1515 55.996 12.1456 55.7314 12.1456 55.464C12.1456 49.0016 12.1456 42.5391 12.1456 36.0767C12.1456 34.8803 12.4322 34.6013 13.6533 34.5898C14.552 34.5812 15.4507 34.5841 16.3494 34.5898C17.7258 34.5956 17.9825 34.84 17.9855 36.1573C17.9855 42.6542 17.9855 49.1482 17.9855 55.6451C17.9855 55.9443 17.9736 56.2462 17.9915 56.5453C18.0482 57.4053 18.5379 57.9028 19.4246 57.9603C20.2158 58.0092 20.804 57.4168 20.8637 56.5712C20.8846 56.2721 20.8727 55.973 20.8727 55.671C20.8727 43.9772 20.8727 32.2861 20.8727 20.5923C20.8727 20.227 20.7801 19.7927 20.9503 19.5138C21.1414 19.2003 21.5892 18.8321 21.9117 18.8436C22.2252 18.8551 22.6073 19.2722 22.7954 19.5972C22.9447 19.856 22.8522 20.2471 22.8522 20.5808C22.8522 25.2773 22.8522 29.9738 22.8522 34.6704C22.8522 35.004 22.7716 35.3807 22.9089 35.6568C23.0671 35.9703 23.4254 36.4017 23.6941 36.3988C24.0435 36.396 24.4614 36.0739 24.7093 35.7805C24.8705 35.5907 24.8048 35.2082 24.8048 34.9091C24.8078 30.0112 24.8108 25.1162 24.8048 20.2184C24.8048 17.9607 23.6523 16.8534 21.2907 16.8506C17.1406 16.8448 12.9905 16.8448 8.84043 16.8506C6.42801 16.8534 5.30838 17.9492 5.3054 20.296C5.3054 25.1249 5.3054 29.9566 5.3054 34.7854C5.3054 35.1161 5.22478 35.5274 5.39497 35.7575C5.61889 36.0624 6.04584 36.3873 6.39517 36.396C6.66388 36.4046 7.03708 35.9847 7.19831 35.6741C7.33864 35.4037 7.26101 35.0212 7.26101 34.6905C7.26101 29.9594 7.26101 25.2313 7.26399 20.5002C7.26399 20.1666 7.18338 19.7783 7.33266 19.5166C7.50285 19.2146 7.87606 18.8523 8.1806 18.835C8.48812 18.8149 8.93597 19.1197 9.11511 19.4016C9.29126 19.6777 9.23752 20.1062 9.23752 20.4686C9.24349 26.3644 9.24051 32.2603 9.24051 38.1561H9.26439ZM15.9881 50.7732V36.5599H14.1579V50.7732H15.9881Z" fill="#3556D7"/>
<path d="M8.23438 6.57752C8.23139 2.95662 11.2499 0.0173307 14.9909 7.46501e-05C18.7738 -0.0171814 21.8669 2.9595 21.8431 6.59478C21.8192 10.184 18.729 13.1521 15.0238 13.1463C11.3066 13.1406 8.24035 10.1725 8.23736 6.57752H8.23438ZM15.0089 11.205C17.7587 11.2108 19.8606 9.19758 19.8576 6.55164C19.8576 3.95172 17.6542 1.82922 14.9969 1.85798C12.3904 1.88674 10.193 3.99486 10.1452 6.51138C10.0974 9.05377 12.3158 11.1964 15.0089 11.2022V11.205Z" fill="#3556D7"/>
</g>
<defs>
<clipPath id="clip0_228_681">
<rect width="30" height="64" fill="white"/>
</clipPath>
</defs>
</svg>
