<svg width="52" height="52" viewBox="0 0 52 52" fill="none" xmlns="http://www.w3.org/2000/svg">
<g clip-path="url(#clip0_228_643)">
<path d="M10.8072 4.86926C10.8438 4.36003 10.858 3.84874 10.923 3.34363C11.1587 1.48813 12.6661 0.0429068 14.4945 0.0284751C18.6572 -0.0045115 22.8219 -0.0189431 26.9825 0.0346601C28.8963 0.0594001 29.973 1.27578 30.5581 3.10654C31.0782 3.10654 31.6145 3.10654 32.1529 3.10654C37.4329 3.10654 42.713 3.10654 47.993 3.10654C49.2891 3.10654 49.3684 3.18694 49.3684 4.51878C49.3684 11.8686 49.4578 19.2205 49.3359 26.5703C49.2627 30.8937 49.9311 35.1201 50.4614 39.3712C50.9327 43.1502 51.4568 46.9231 51.9708 50.6959C52.0886 51.5577 51.8347 51.9865 50.9063 51.9824C45.287 51.9639 39.6697 51.9639 34.0504 51.9824C33.1565 51.9845 32.8213 51.6319 32.9411 50.7351C33.7863 44.4099 34.6192 38.0827 35.4582 31.7575C35.4765 31.6214 35.5172 31.4854 35.5172 31.3513C35.5212 26.6528 35.5192 21.9543 35.5192 17.1939H30.5418C29.8511 19.6308 28.0227 20.206 25.6986 20.1483C22.316 20.0637 18.9294 20.1276 15.5448 20.1256C12.1744 20.1256 11.0286 19.0308 10.8478 15.6518C10.8417 15.5507 10.8133 15.4518 10.7686 15.2003C8.80814 15.3384 7.24383 14.7446 6.93097 12.3902C5.4337 12.3902 3.9852 12.3985 2.53669 12.3882C1.03333 12.3778 0.0398938 11.5016 -0.000737563 10.1719C-0.0413689 8.77818 0.939878 7.78858 2.45136 7.75147C3.70281 7.72054 4.95629 7.7659 6.20773 7.72467C6.48403 7.71642 6.95332 7.52881 6.99598 7.34326C7.4348 5.42385 8.72281 4.85483 10.4801 4.95379C10.5756 4.95998 10.6731 4.90637 10.8052 4.87132L10.8072 4.86926ZM47.8691 30.3865V4.61774H30.6698V15.6848C32.3764 15.6848 33.9955 15.6827 35.6147 15.6848C36.9027 15.6868 36.9758 15.7652 36.9778 17.1094C36.9778 21.1605 36.9778 25.2138 36.9778 29.2649C36.9778 29.6278 36.9778 29.9906 36.9778 30.3844H47.8691V30.3865ZM34.4648 50.4733H50.4106C50.3882 50.0816 50.3882 49.7414 50.3435 49.4095C49.6142 43.8327 48.8645 38.26 48.1657 32.6811C48.0763 31.9719 47.7634 31.8688 47.1763 31.8709C44.0315 31.8874 40.8846 31.8956 37.7377 31.8668C37.049 31.8606 36.8275 32.0894 36.7422 32.7883C36.2587 36.7364 35.7122 40.6763 35.1982 44.6202C34.9463 46.5499 34.7127 48.4817 34.4648 50.4753V50.4733ZM16.5017 14.1839H24.9896V5.56198H16.5017V14.1839ZM16.6926 15.726C15.8821 15.6559 15.0329 15.8559 15.0329 14.7281C15.0329 11.4687 15.0349 8.21122 15.0288 4.95173C15.0288 4.35385 15.3092 4.07346 15.88 4.03635C16.1401 4.01986 16.396 3.9745 16.6926 3.93533V1.46546C16.0324 1.46546 15.431 1.45927 14.8317 1.46546C13.2796 1.48607 12.3756 2.35609 12.3085 3.92708C12.274 4.71464 12.2984 5.50426 12.2984 6.29387C12.2984 9.55336 12.2902 12.8108 12.3045 16.0703C12.3106 17.4908 12.9261 18.4247 14.0618 18.5773C14.911 18.6907 15.7866 18.5999 16.6947 18.5999V15.726H16.6926ZM24.8413 18.6536C25.6112 18.6536 26.3162 18.6948 27.0171 18.6453C28.2726 18.5525 29.1076 17.7423 29.1197 16.4496C29.1583 12.2315 29.1543 8.01536 29.1218 3.7972C29.1137 2.65297 28.3864 1.69842 27.3889 1.54998C26.5478 1.42628 25.6742 1.52524 24.8535 1.52524V3.94564C25.9627 4.0927 26.518 4.73044 26.5193 5.85886C26.5193 8.53284 26.5193 11.2089 26.5193 13.8829C26.5193 15.5879 26.5112 15.5961 24.8433 15.759V18.6536H24.8413ZM10.8235 6.49798C8.83861 6.2815 8.44246 6.62786 8.43839 8.47718C8.43636 9.60903 8.43027 10.7429 8.43839 11.8748C8.45058 13.5076 9.20836 14.0375 10.8214 13.5159V6.49798H10.8235ZM23.3277 15.761H18.2631V18.5814H23.3277V15.761ZM18.2285 3.94976H23.3074V1.53143H18.2285V3.94976ZM6.94316 9.20907C5.34635 9.20907 3.86533 9.15753 2.39448 9.24824C2.0613 9.26886 1.75657 9.78221 1.43964 10.0688C1.71594 10.3574 1.97801 10.8811 2.26852 10.8976C3.80439 10.98 5.34838 10.9367 6.94316 10.9367V9.20907Z" fill="#3556D7"/>
<path d="M13.636 46.9584C13.636 47.9191 13.6522 48.8798 13.6319 49.8406C13.6136 50.7353 13.2276 51.4466 12.4211 51.8301C11.5658 52.2362 10.8873 51.7332 10.3306 51.1848C8.37017 49.2551 7.40721 46.7687 6.71444 44.1648C6.13951 42.0042 6.24312 39.8023 6.59255 37.6232C6.77133 36.5078 6.6149 35.5532 6.00136 34.5966C4.67678 32.535 4.12826 30.2878 4.66256 27.8261C5.35939 24.612 8.31125 22.808 11.4338 23.7255C12.1448 23.9337 12.8335 24.2285 13.5304 24.4883C14.985 25.0305 16.4233 25.0717 17.8799 24.4594C18.595 24.1584 19.3406 23.9213 20.0903 23.7214C23.5846 22.7833 26.4044 24.7481 26.8148 28.4075C27.0951 30.9186 26.5852 33.2194 25.1631 35.3512C24.8035 35.8893 24.7852 36.7902 24.8787 37.4892C25.2525 40.3342 25.1286 43.1484 24.1189 45.81C23.4627 47.5418 22.4814 49.1664 21.4961 50.7436C20.9537 51.6095 20.0192 52.0796 18.9262 51.6981C18.075 51.4013 17.6646 50.4529 17.6463 49.1231C17.6199 47.0718 17.563 45.0204 17.4675 42.9711C17.4472 42.5444 17.3009 42.0537 17.049 41.7238C16.7016 41.2702 16.2039 40.6497 15.7569 40.6394C15.3019 40.6291 14.603 41.1775 14.4181 41.6455C14.0261 42.6392 13.8432 43.7319 13.6847 44.7998C13.5791 45.5049 13.6644 46.2389 13.6644 46.9584C13.6563 46.9584 13.6461 46.9584 13.638 46.9584H13.636ZM11.773 50.6055C11.8665 50.5622 11.9579 50.5209 12.0514 50.4776C12.1103 50.1601 12.218 49.8426 12.222 49.5231C12.2423 48.3232 12.1611 47.1151 12.2444 45.9214C12.3439 44.4988 12.3988 43.033 12.7888 41.6785C13.2703 40.0064 14.6254 39.0024 15.8565 39.1055C17.5 39.2416 18.3391 40.4538 18.6174 41.8661C18.9729 43.6638 19.0135 45.5276 19.1395 47.3666C19.1903 48.117 19.0643 48.8778 19.107 49.6282C19.1436 50.3106 19.5397 50.624 20.0964 50.0921C20.6286 49.5849 21.1406 49.0035 21.488 48.3582C23.2473 45.107 23.9665 41.6249 23.4708 37.9303C23.2819 36.5222 23.4667 35.2955 24.2001 34.007C24.8726 32.8277 25.3297 31.4134 25.478 30.0568C25.8802 26.3706 23.4261 24.0512 20.1147 25.2759C16.9068 26.4613 14.0118 26.3995 10.8934 25.148C8.71554 24.2739 6.61083 25.7274 6.07044 28.0694C5.58489 30.1764 6.10091 32.0835 7.19999 33.8627C7.96995 35.11 8.2239 36.413 7.99027 37.8912C7.35439 41.9197 8.06137 45.6801 10.4261 49.0407C10.8202 49.6014 11.32 50.0839 11.771 50.6034L11.773 50.6055Z" fill="#3556D7"/>
<path d="M39.512 41.1426C39.512 40.1818 39.4835 39.2211 39.5181 38.2624C39.5851 36.4193 40.8223 35.0854 42.4313 35.071C44.0464 35.0545 45.3446 36.376 45.3933 38.2067C45.4462 40.1942 45.4441 42.1858 45.3933 44.1732C45.3507 45.9668 44.1155 47.2162 42.4862 47.2306C40.8183 47.2451 39.581 45.973 39.516 44.1258C39.4815 43.1321 39.5099 42.1363 39.512 41.1426ZM43.9245 40.388C43.9245 39.4809 43.9916 38.6582 43.9062 37.8501C43.8209 37.0419 43.2744 36.5409 42.4659 36.5389C41.6553 36.5347 41.1047 37.0337 41.0173 37.8398C40.928 38.6686 40.997 39.5159 40.997 40.39H43.9266L43.9245 40.388ZM40.995 41.926C40.995 42.8228 40.9259 43.6763 41.0153 44.5134C41.0966 45.2844 41.6573 45.738 42.411 45.7607C43.2155 45.7854 43.8067 45.3257 43.9042 44.5113C44.0017 43.6763 43.9266 42.8208 43.9266 41.9239H40.997L40.995 41.926Z" fill="#3556D7"/>
</g>
<defs>
<clipPath id="clip0_228_643">
<rect width="52" height="52" fill="white"/>
</clipPath>
</defs>
</svg>
