<svg width="60" height="53" viewBox="0 0 60 53" fill="none" xmlns="http://www.w3.org/2000/svg">
<g clip-path="url(#clip0_228_658)">
<path d="M48.7295 13.3227C49.6501 11.3594 50.5217 9.49766 51.2651 7.91202C50.6949 6.89689 50.0879 6.1193 49.8354 5.24223C49.6888 4.73669 49.9943 3.97128 50.3446 3.51447C50.4912 3.32566 51.3364 3.53072 51.7844 3.73374C54.2243 4.83008 56.6417 5.97718 59.0612 7.11616C60.1793 7.642 60.2974 8.24296 59.4237 9.10988C58.5602 9.96868 57.5235 10.2367 56.2323 9.75347C55.3362 11.6599 54.4503 13.5399 53.5115 15.5357C54.2976 15.9113 55.0471 16.2666 55.7945 16.6239C56.3138 16.8736 56.9777 17.0888 56.6519 17.8481C56.3179 18.6237 55.7212 18.2704 55.1917 18.0349C55.0715 17.9821 54.9432 17.9496 54.7355 17.8786C53.8047 19.85 52.8781 21.7909 51.9657 23.74C49.4159 29.1892 46.8396 34.6242 44.3549 40.0998C43.7704 41.387 42.8519 41.9798 41.5648 42.0935C40.8561 42.1565 40.461 42.4184 40.2227 43.0721C39.8439 44.1096 39.2737 44.9257 37.9784 44.9501C37.7523 44.9542 37.4692 45.4211 37.3226 45.7277C36.2738 47.9224 35.2718 50.1395 34.2025 52.326C34.0539 52.6306 33.6567 52.8844 33.3207 52.992C33.172 53.0387 32.7484 52.6915 32.6995 52.4682C32.6384 52.1799 32.781 51.8165 32.9154 51.5221C33.8787 49.435 34.8278 47.3418 35.8583 45.2892C36.2676 44.475 36.3063 43.8477 35.5141 43.2954C22.2518 51.1932 7.25641 43.8253 2.21177 33.3228C-2.65161 23.1979 0.425682 8.91294 12.1992 2.76125C23.7121 -3.25442 39.9294 0.404112 45.5077 15.2636C45.748 14.754 45.9353 14.3601 46.1023 14.0069C46.0168 13.8729 45.9944 13.7957 45.9435 13.7653C45.4303 13.4587 44.6788 13.209 45.0881 12.4354C45.4995 11.6558 46.141 12.1532 46.6807 12.3888C47.3284 12.673 47.9679 12.9735 48.7316 13.3227H48.7295ZM23.6021 45.0618C27.7547 45.0902 31.9908 43.7949 35.4734 41.4317C36.5731 40.6845 36.6037 40.5749 35.9377 39.4542C35.2779 38.3436 35.1455 37.3183 35.7626 36.0413C38.6118 30.1393 41.353 24.1866 44.1004 18.2379C44.2938 17.8177 44.4018 17.235 44.2735 16.8127C43.4161 14.0069 42.0801 11.4366 40.1962 9.16876C34.6058 2.44859 25.5267 -0.14812 16.7897 2.54401C5.67194 5.96703 0.305523 16.0777 1.73317 26.4605C3.19952 37.1295 12.6493 44.9866 23.6041 45.0618H23.6021ZM42.5139 25.0576C43.3713 25.4697 44.1493 25.7418 44.8152 26.1803C45.1614 26.4077 45.5178 26.763 45.5097 27.033C45.4893 27.7497 44.7093 27.7741 44.1798 27.5365C43.4507 27.2097 42.7236 26.8808 41.9314 26.5234C41.5546 27.3558 41.2329 28.0705 40.8989 28.8115C41.5058 29.1019 42.0536 29.2582 42.4568 29.5912C42.5016 29.6277 42.5424 29.6724 42.577 29.7211C42.9171 30.1942 42.5831 30.8885 42.0006 30.923C41.9395 30.9271 41.8805 30.923 41.8214 30.9129C41.2817 30.8053 40.7848 30.4885 40.2084 30.2348C39.8358 31.0408 39.5038 31.7554 39.1555 32.5066C39.9579 32.8843 40.6565 33.2192 41.3612 33.5441C41.8825 33.7857 42.4039 34.0699 42.0597 34.7501C41.7522 35.3591 41.2247 35.1784 40.7359 34.9511C40.0089 34.614 39.2777 34.2811 38.4773 33.9136C38.1087 34.7196 37.7829 35.4363 37.4305 36.2078C38.0191 36.488 38.5588 36.6484 38.9682 36.9732C38.9906 36.9915 39.013 37.0118 39.0333 37.0341C39.4529 37.4706 39.1515 38.2076 38.5507 38.2827C38.4692 38.2929 38.3898 38.2949 38.3124 38.2848C37.8562 38.2299 37.4305 37.9396 36.9927 37.7508L36.789 38.0086C37.3206 38.6867 37.7706 39.4562 38.402 40.0227C39.848 41.32 42.3184 40.7617 43.1248 39.0339C46.4139 31.9991 49.7051 24.9642 52.9901 17.9293C53.098 17.6979 53.1693 17.4522 53.2793 17.1558C51.3506 16.2564 49.4872 15.3895 47.5728 14.4982C47.0656 15.5824 46.585 16.6117 46.0718 17.706C46.8946 18.0979 47.6929 18.3963 48.3955 18.845C48.7071 19.044 49.0635 19.4094 48.9841 19.6936C48.809 20.3129 48.2469 20.4367 47.7275 20.189C46.976 19.8317 46.2164 19.4947 45.4038 19.1231C45.025 19.9474 44.6971 20.6641 44.357 21.4031C44.9557 21.6975 45.4975 21.864 45.9028 22.199C45.9252 22.2173 45.9476 22.2376 45.9679 22.2599C46.4139 22.7411 46.0229 23.5674 45.3692 23.5288C45.3386 23.5288 45.3101 23.5227 45.2816 23.5166C44.7012 23.3989 44.1737 23.0294 43.5403 22.7593L42.5139 25.0576ZM54.8414 9.08145C54.1448 8.75864 53.54 8.47847 52.8496 8.15769C51.9331 10.1169 51.0411 12.0213 50.1287 13.9744C50.815 14.2952 51.4199 14.5774 52.1082 14.8961C53.0145 12.9694 53.8984 11.0874 54.8434 9.08145H54.8414ZM57.5684 8.56171C57.6213 8.4338 57.6743 8.30589 57.7272 8.17799C55.6743 7.22579 53.6214 6.27563 51.5706 5.32344C51.5156 5.44119 51.4606 5.56098 51.4077 5.67873C53.3974 6.77914 55.4646 7.71306 57.5704 8.56171H57.5684ZM37.0619 42.7473C38.3572 43.604 38.6118 43.4843 38.8439 42.0245C38.4631 41.86 38.0761 41.6915 37.6383 41.5007C37.4346 41.9413 37.2574 42.325 37.0619 42.7452V42.7473Z" fill="#3556D7"/>
<path d="M25.9425 35.5134C25.749 34.009 25.5881 32.4985 25.3437 31.0022C25.2582 30.4845 25.0301 29.9586 24.7531 29.5079C24.0036 28.2897 22.5943 28.2491 22.0444 29.5566C21.4925 30.8662 21.2033 32.3259 21.0404 33.7471C20.8714 35.217 20.9976 36.7194 20.9854 38.2076C20.9773 39.1963 20.7756 40.112 19.8022 40.6175C18.8226 41.1271 17.959 40.715 17.1363 40.1851C15.7758 39.308 15.283 37.8665 14.9001 36.4392C14.2891 34.1592 13.7331 31.8569 13.3299 29.5323C12.9714 27.4655 12.2383 25.5712 11.2831 23.7338C9.33611 19.99 9.33408 16.1528 10.7108 12.2446C12.2668 7.8308 17.845 5.70105 21.7552 8.0054C22.7023 8.56372 23.6167 8.87638 24.6839 8.19015C28.922 5.46148 35.1967 7.8044 36.5185 13.615C37.3087 17.0868 37.2863 20.4732 35.4961 23.6547C33.9015 26.4909 33.4982 29.646 32.8038 32.7381C32.3781 34.6384 31.7651 36.5042 31.1317 38.3477C30.7692 39.4034 29.9525 40.1485 28.9016 40.5911C27.3864 41.2286 26.0423 40.5099 25.8712 38.8674C25.7571 37.765 25.8488 36.6382 25.8488 35.5236C25.8773 35.5195 25.9079 35.5134 25.9364 35.5094L25.9425 35.5134ZM24.9547 9.84482C25.3091 10.2346 25.6207 10.5879 25.9445 10.933C26.3294 11.3431 26.6084 11.8527 26.0504 12.2121C25.7979 12.3745 25.1869 12.1999 24.861 11.9908C23.5841 11.1746 22.3805 10.2407 21.1015 9.42861C17.9611 7.43692 13.3176 9.21747 12.0855 12.9694C10.9511 16.4229 10.945 19.8093 12.6822 23.0862C13.8146 25.2241 14.5539 27.4675 14.9591 29.8652C15.3481 32.1533 15.9367 34.4171 16.5945 36.6463C16.8389 37.4726 17.4784 38.2056 18.0344 38.906C18.2177 39.1374 18.7696 39.2958 19.0283 39.1882C19.2563 39.0948 19.405 38.5852 19.4193 38.2543C19.458 37.3102 19.3052 36.3479 19.4193 35.418C19.6698 33.3857 19.8999 31.3331 20.4111 29.3577C20.7675 27.9791 21.8774 27.0594 23.4293 27.0757C24.9344 27.0899 25.9486 28.0055 26.3702 29.3374C26.8345 30.8012 27.1318 32.3442 27.2927 33.873C27.4475 35.3449 27.3131 36.8453 27.3498 38.3335C27.3742 39.3039 27.9159 39.6125 28.6389 38.9771C29.2479 38.4431 29.8201 37.7142 30.0686 36.959C30.6674 35.1378 31.148 33.268 31.5268 31.3859C32.0747 28.6694 32.5044 25.9367 33.9055 23.476C35.4432 20.7757 35.7426 17.9029 35.2477 14.8535C34.2945 8.98805 28.59 7.08569 24.9527 9.84279L24.9547 9.84482Z" fill="#3556D7"/>
</g>
<defs>
<clipPath id="clip0_228_658">
<rect width="60" height="53" fill="white"/>
</clipPath>
</defs>
</svg>
