<svg width="52" height="65" viewBox="0 0 52 65" fill="none" xmlns="http://www.w3.org/2000/svg">
<g clip-path="url(#clip0_228_665)">
<path d="M41.4124 55.4945C40.4558 58.2799 39.5361 60.9649 38.6195 63.6469C38.5857 63.7472 38.598 63.881 38.5365 63.9479C38.2074 64.3098 37.9029 64.8541 37.5061 64.9362C37.2139 64.997 36.6664 64.5196 36.4449 64.1547C34.7224 61.2903 33.0523 58.3954 31.3636 55.5097C30.6716 54.3269 29.9549 53.1531 29.2998 51.949C29.0137 51.4229 28.6846 51.2161 28.054 51.2496C26.7776 51.3165 25.495 51.3256 24.2216 51.2587C23.5387 51.2222 23.2219 51.4868 22.9051 52.0371C20.6044 56.0297 18.2852 60.0131 15.9199 63.9692C15.6554 64.4101 15.0679 64.6595 14.6311 65C14.3082 64.5835 13.8529 64.2125 13.6838 63.7442C12.7118 61.0409 11.8075 58.3133 10.8509 55.5067C8.85163 55.905 6.92001 56.2912 4.98531 56.6744C4.01335 56.869 3.04446 57.1122 2.06327 57.2247C1.58959 57.2795 0.876 57.2339 0.657616 56.948C0.445384 56.6683 0.586872 55.9446 0.811408 55.5493C2.86606 51.9429 4.96993 48.3639 7.05842 44.7788C7.23374 44.4747 7.40599 44.1706 7.61207 43.8088C5.33595 41.5038 3.52121 38.8918 2.18938 35.9513C-4.3806 21.4468 4.47165 4.12032 20.0907 0.650774C34.3041 -2.50861 48.0839 6.16981 51.2612 19.8017C53.2789 28.4527 51.1412 36.2098 45.1956 42.8904C44.6851 43.4651 44.602 43.8331 44.9988 44.496C47.1457 48.0902 49.2588 51.7057 51.3319 55.3425C51.5965 55.8047 51.5565 56.4341 51.658 56.9845C51.0982 57.0605 50.5138 57.2825 49.9878 57.1882C47.1673 56.6774 44.359 56.0875 41.4124 55.4945ZM25.9471 49.5072C39.1055 49.565 49.997 38.8979 50.0708 25.8863C50.1447 12.6345 39.4623 1.90966 26.0886 1.80323C12.9056 1.69985 1.96484 12.4156 1.90948 25.4819C1.85411 38.7245 12.5795 49.4464 25.9471 49.5042V49.5072ZM37.1862 61.7707C37.34 61.4666 37.4507 61.2994 37.5122 61.1139C38.2473 58.9549 38.9948 56.8021 39.6961 54.634C39.9852 53.74 40.4804 53.3751 41.4401 53.6031C42.6458 53.889 43.8638 54.1201 45.0818 54.3573C46.3368 54.6036 47.5948 54.8255 49.0497 55.0962C47.0104 51.6084 45.088 48.3213 43.1195 44.9521C39.5054 48.0446 35.4637 49.9603 30.8438 50.912C32.9815 54.5701 35.0516 58.1126 37.1862 61.7707ZM15.0064 61.8802C17.1656 58.1826 19.2418 54.6249 21.3856 50.9546C16.6858 50.0424 12.6257 48.1084 9.0331 45.1163C7.07995 48.4642 5.19754 51.6966 3.19518 55.1327C5.80348 54.6157 8.15649 54.1535 10.5064 53.6822C11.9951 53.3842 12.1458 53.4724 12.6411 54.9289C13.4039 57.1822 14.1759 59.4354 15.0094 61.8802H15.0064Z" fill="#3556D7"/>
<path d="M45.3006 25.7709C45.1622 36.4501 36.4484 44.8488 25.6399 44.7211C15.1575 44.5995 6.49901 35.8177 6.68356 25.4942C6.87426 14.748 15.585 6.44664 26.5042 6.60476C36.8482 6.75376 45.4329 15.5082 45.3006 25.7709ZM26.0428 8.46269C16.3847 8.45052 8.52291 16.1863 8.54444 25.6888C8.56597 35.1122 16.3663 42.8389 25.886 42.8662C35.5502 42.8906 43.4121 35.1973 43.4367 25.6857C43.4613 16.2319 35.6302 8.47789 26.0428 8.46269Z" fill="#3556D7"/>
<path d="M23.4718 30.177C26.1171 26.8991 28.6823 23.7184 31.2475 20.5377C31.9704 19.6407 32.6778 18.7345 33.4191 17.8557C34.4003 16.6881 35.9197 16.457 37.0455 17.2719C38.2297 18.1264 38.4142 19.6042 37.4207 20.8418C33.5821 25.628 29.7312 30.4051 25.8648 35.17C24.7145 36.587 23.1396 36.7117 21.817 35.5106C19.3841 33.2999 16.9695 31.071 14.5642 28.83C13.42 27.7626 13.3831 26.2514 14.4135 25.2388C15.4654 24.2049 16.9726 24.2019 18.1476 25.2692C19.9008 26.8626 21.6294 28.4803 23.4688 30.1801L23.4718 30.177ZM23.6687 35.1183L24.007 34.6713C24.2685 34.3977 24.5515 34.1422 24.7883 33.8503C27.0583 31.0467 29.3221 28.234 31.5859 25.4243C33.0684 23.5846 34.5787 21.7632 36.0058 19.8839C36.215 19.6072 36.2242 18.9231 36.0151 18.6798C35.6091 18.2115 35.0862 18.4639 34.7078 18.917C34.5448 19.1146 34.3818 19.3123 34.2219 19.5099C30.9922 23.5116 27.7657 27.5133 24.5361 31.515C23.7856 32.4424 23.4657 32.4728 22.5983 31.6761C20.762 29.9885 18.935 28.2887 17.1049 26.5919C16.6773 26.1936 16.1975 25.8986 15.6715 26.3882C15.1333 26.893 15.4531 27.3461 15.8868 27.7444C18.2306 29.9064 20.5744 32.0714 22.909 34.2426C23.1889 34.5041 23.4134 34.8234 23.6656 35.1153L23.6687 35.1183Z" fill="#3556D7"/>
</g>
<defs>
<clipPath id="clip0_228_665">
<rect width="52" height="65" fill="white"/>
</clipPath>
</defs>
</svg>
