<svg width="45" height="48" viewBox="0 0 45 48" fill="none" xmlns="http://www.w3.org/2000/svg">
<g clip-path="url(#clip0_221_979)">
<path d="M6.57342 33.7591C6.17752 34.3687 5.79609 34.9229 5.60447 35.5843C5.50865 35.915 5.29173 36.1607 4.89764 36.1755C4.51259 36.1902 4.38243 35.9261 4.283 35.6305C3.64306 33.7498 2.3939 32.4973 0.562656 31.8341C0.240877 31.7177 0.0311784 31.533 0.00406219 31.1136C-0.0266695 30.6481 0.284263 30.5871 0.557233 30.4412C0.687391 30.3728 0.813933 30.2989 0.951322 30.2453C2.43006 29.6745 3.45867 28.664 4.01365 27.1251C4.15104 26.7445 4.16911 26.194 4.8651 26.1681C5.6117 26.1423 5.53216 26.7852 5.81959 27.1288C5.98409 27.3265 5.94251 27.6719 6.39626 27.8197C6.01844 26.4619 6.28418 25.1373 6.09979 23.8386C5.98229 23.0146 5.23026 22.5824 4.78917 21.9598C2.95973 19.3845 2.23121 16.5876 2.71207 13.4082C3.22005 10.0589 4.76567 7.4245 7.58214 5.67501C9.43147 4.52594 11.476 4.23774 13.6743 4.53148C15.6682 4.7975 17.4289 5.78586 19.3958 6.10176C20.9432 6.35116 22.4328 6.25325 23.9513 5.92995C25.524 5.59558 26.9449 4.79566 28.5592 4.55365C29.9096 4.35043 31.2221 4.35413 32.511 4.69405C33.0786 4.84369 33.3823 4.69959 33.6101 4.27284C34.2374 3.0979 34.8195 1.8971 35.4359 0.716613C35.5896 0.42103 35.6077 -0.0574445 36.1066 -0.000175317C36.526 0.0478569 36.7068 0.371151 36.8839 0.73324C37.4678 1.9322 37.9794 3.1681 38.67 4.31533C39.5558 5.78771 41.0436 6.41767 42.4409 7.14369C42.864 7.36353 43.3213 7.58707 43.7913 7.74779C44.1294 7.86233 44.4819 8.12466 44.4204 8.48675C44.3644 8.81743 44.0426 9.07422 43.6865 9.22016C42.4446 9.73189 41.2514 10.3434 40.1071 11.0583C39.6407 11.3502 39.572 11.6532 39.6914 12.2499C40.4759 16.2181 39.9083 19.8685 36.9689 22.8484C36.6182 23.2031 36.5242 23.567 36.5007 24.051C36.347 27.1768 36.1554 30.3008 35.971 33.4265C35.9511 33.7739 35.6275 34.0879 35.9186 34.5516C36.4718 33.9512 36.6381 33.1531 37.0484 32.5102C37.2437 32.2036 37.2419 31.7232 37.7715 31.7251C38.3066 31.7269 38.5037 32.1518 38.6176 32.5324C39.2774 34.729 40.7525 36.0351 42.8332 36.7352C43.1152 36.8294 43.3539 37.0271 43.381 37.3874C43.4099 37.755 43.2454 37.9564 42.911 38.0506C42.8296 38.0727 42.7663 38.1614 42.6832 38.1873C40.5826 38.8634 39.2358 40.3155 38.4964 42.4067C38.397 42.6894 38.3428 43.0108 37.8746 43.0145C37.3937 43.0182 37.2636 42.73 37.1099 42.3993C36.582 41.265 36.1247 40.0845 35.0201 39.2255C34.4688 40.8475 33.8686 42.379 32.9702 43.7646C32.1784 44.9857 31.298 46.1329 30.0199 46.8571C28.1796 47.9009 26.8419 46.8793 26.0519 45.5491C25.1498 44.0287 24.8262 42.2996 24.5732 40.5427C24.2695 38.4385 24.3689 36.2715 23.6819 34.2283C23.4433 33.5189 23.1396 32.8372 22.5575 32.3292C21.6301 31.5182 20.1984 31.6641 19.5982 32.7245C18.9366 33.8921 18.6184 35.1834 18.4359 36.5283C18.0942 39.0408 18.1593 41.6123 17.2156 44.038C16.6661 45.4475 16.0912 46.8626 14.542 47.197C12.7451 47.585 11.5248 46.3823 10.5179 45.054C8.29078 42.1167 7.15371 38.7544 6.87712 35.0633C6.84639 34.644 6.67104 34.2191 6.57884 33.7591H6.57342ZM38.6826 15.2907C38.6826 14.633 38.6881 14.1102 38.679 13.5874C38.6754 13.4211 38.7622 13.1847 38.5217 13.1274C38.3066 13.0757 38.2307 13.2826 38.1512 13.4433C37.8077 14.1324 37.4877 14.8362 37.1153 15.5087C36.8387 16.0093 36.9038 16.9219 36.0036 16.7631C35.2895 16.6374 35.2931 15.8615 35.0563 15.3276C34.2247 13.4525 33.3281 11.6218 31.4372 10.6112C30.4592 10.0884 29.436 9.64876 28.4363 9.16659C28.1055 9.00771 27.8596 8.76016 27.8416 8.36482C27.8235 7.9547 28.2085 7.91775 28.4472 7.79028C29.3764 7.28964 30.3272 6.83148 31.2618 6.34192C31.4444 6.24586 31.8096 6.25694 31.7156 5.91702C31.6559 5.70272 31.3848 5.7175 31.1678 5.70642C29.5571 5.61959 28.0007 5.85791 26.4966 6.45831C25.1896 6.97927 23.8591 7.43188 22.4527 7.55012C20.2689 7.73486 18.1882 7.31365 16.1491 6.48417C14.5257 5.82281 12.7704 5.40714 11.0458 5.74522C6.35287 6.66522 4.18358 10.4154 3.83649 14.4132C3.56713 17.5168 4.66444 20.1881 6.84639 22.381C7.02897 22.5639 7.19528 22.732 7.26217 23.0442C7.56406 24.4796 7.52429 25.9557 7.53695 27.3837C7.55141 28.9651 7.7593 30.0735 9.40074 30.552C9.93945 30.709 9.94125 31.424 9.46039 31.7251C9.21273 31.8803 8.93976 32.0059 8.66317 32.0964C8.08831 32.283 7.93285 32.6562 7.95273 33.264C8.01962 35.2832 8.27451 37.2802 8.91445 39.1793C9.67009 41.4202 10.639 43.5761 12.4088 45.2314C13.573 46.3213 14.6034 46.2013 15.4784 44.8545C15.6592 44.5756 15.7984 44.2911 15.9231 43.9807C16.8902 41.5477 16.8215 38.9392 17.1777 36.4027C17.3675 35.0449 17.635 33.7092 18.2641 32.4825C19.1608 30.7349 21.218 29.8315 22.9028 30.9824C23.823 31.6106 24.4069 32.4585 24.7774 33.5208C25.5692 35.7875 25.4915 38.1854 25.844 40.5168C26.0411 41.8156 26.2851 43.105 26.7768 44.3151C27.5541 46.2345 28.825 46.4377 30.32 44.9968C31.7228 43.6445 32.5489 41.9615 33.2955 40.1806C33.7077 39.1996 34.0277 38.5568 32.7189 38.0524C31.9434 37.7531 32.0518 37.1361 32.84 36.7241C33.0985 36.5893 33.357 36.4452 33.6318 36.3528C34.2952 36.1274 34.4796 35.5917 34.5194 34.9691C34.6044 33.6427 34.7544 32.32 34.8629 30.9972C35.0635 28.5716 35.1467 26.1349 35.2298 23.7C35.2515 23.0811 35.4016 22.5934 35.8391 22.1667C37.795 20.2602 38.82 17.9528 38.6826 15.2907ZM30.1392 8.50152C33.0913 9.59333 35.0726 11.6439 36.1319 14.6552C37.2419 11.546 39.2828 9.5841 42.2891 8.44795C40.2373 7.50393 38.4404 6.571 37.3919 4.66264C37.0502 4.04007 36.7646 3.38794 36.4284 2.76168C36.3579 2.62866 36.3796 2.33493 36.1193 2.41252C36.0162 2.44208 35.9493 2.62866 35.8842 2.75429C35.3853 3.73525 34.9352 4.73839 34.2048 5.5808C33.1075 6.84441 31.7246 7.6665 30.1374 8.50152H30.1392ZM37.7318 41.0581C38.5471 39.2569 39.5775 38.0247 41.416 37.3929C39.5323 36.7833 38.5615 35.5307 37.833 33.8921C37.0737 35.4975 36.0162 36.6355 34.4182 37.4317C35.9511 38.2057 37.1569 39.1645 37.7318 41.0581ZM7.67976 31.084C6.30587 30.5594 5.49238 29.5969 4.89221 28.215C4.38966 29.5433 3.55267 30.3137 2.54395 30.8827C2.17517 31.0896 2.21494 31.2448 2.49333 31.3796C3.61594 31.9265 4.31916 32.8963 5.00068 33.9863C5.45985 32.5786 6.47942 31.8267 7.67976 31.084Z" fill="#3556D7"/>
</g>
<defs>
<clipPath id="clip0_221_979">
<rect width="45" height="48" fill="white"/>
</clipPath>
</defs>
</svg>
