<svg width="56" height="41" viewBox="0 0 56 41" fill="none" xmlns="http://www.w3.org/2000/svg">
<g clip-path="url(#clip0_221_985)">
<path d="M51.5229 24.3603C54.6229 25.3729 55.4027 26.4588 55.4027 29.6407C55.4027 31.0666 55.4124 32.4949 55.4003 33.9208C55.3787 36.2834 54.002 38.0297 51.7323 38.3403C41.9004 39.688 32.0275 40.4951 22.1065 39.9546C16.1063 39.6268 10.1253 38.9616 4.13949 38.3941C1.40533 38.1349 0.0141736 36.4816 0.00213941 33.6738C-0.00267426 32.3286 0.00213941 30.9835 0.00213941 29.6383C0.00213941 26.4563 0.810837 25.3313 3.89159 24.3628C3.89159 23.1545 3.87956 21.9048 3.894 20.6525C3.91084 19.2462 4.40184 18.7008 5.76411 18.6837C8.1902 18.6543 10.6187 18.6763 13.0472 18.6739C14.3349 18.6739 15.6249 18.6103 16.9078 18.6861C19.873 18.8598 22.8358 18.6494 25.7986 18.6763C27.6615 18.6935 28.309 19.3587 28.3258 21.2762C28.3403 22.9467 28.3186 24.6171 28.333 26.29C28.3523 28.4668 29.392 29.6407 31.279 29.6456C33.1852 29.6505 34.2274 28.4814 34.237 26.3145C34.2442 24.5217 34.225 22.729 34.2442 20.9338C34.2587 19.3685 34.9037 18.6665 36.4441 18.691C37.8737 18.713 39.2986 18.9136 40.7282 18.96C41.265 18.9772 41.8065 18.6959 42.348 18.6886C44.7332 18.6568 47.1184 18.6592 49.5036 18.6788C51.0175 18.691 51.5061 19.2095 51.5205 20.7552C51.5325 21.9341 51.5205 23.113 51.5205 24.3554L51.5229 24.3603ZM27.6976 29.0758C26.6843 30.3794 25.4448 30.959 23.8828 30.9076C22.3039 30.8538 21.2329 29.9734 20.352 28.7847C17.909 30.6557 16.2074 30.4307 14.2001 28.0363C11.7812 29.401 10.7222 29.2078 8.72693 27.0311C6.59688 28.0926 5.91574 27.9091 3.91807 25.7422C1.99259 26.2215 1.26092 27.124 1.24888 29.0586C1.23925 30.6484 1.23685 32.2357 1.24888 33.8254C1.26332 35.7552 2.19718 36.868 4.08654 37.1272C6.1492 37.411 8.21908 37.6702 10.2914 37.8854C20.003 38.8931 29.7314 39.1792 39.4695 38.3697C43.4624 38.0371 47.4433 37.5797 51.4242 37.1077C53.2486 36.8924 54.1728 35.7405 54.1945 33.8719C54.2138 32.1599 54.221 30.4503 54.1921 28.7382C54.1608 26.9773 53.1187 25.9256 51.3593 25.8131C49.9729 27.8137 48.9861 28.0705 46.9547 27.1632C45.9246 27.7893 45.1087 28.6037 44.1845 28.7603C43.2314 28.9192 42.1748 28.4325 41.0748 28.2124C39.3828 30.4332 37.7943 30.6337 35.0938 28.841C32.6437 31.5802 30.2561 31.6927 27.7024 29.0782L27.6976 29.0758ZM27.0574 23.9543C27.0574 23.9543 27.0694 23.9543 27.0767 23.9543C27.0767 22.976 27.067 21.9977 27.0791 21.0194C27.0887 20.3174 26.7975 19.953 26.0826 19.9579C24.7998 19.9653 23.5169 19.9701 22.2317 19.9555C21.4663 19.9457 21.1631 20.2979 21.1727 21.0732C21.2016 23.0298 21.1462 24.9864 21.2016 26.9406C21.2473 28.5499 22.4146 29.6138 24.0296 29.6456C25.7409 29.6799 26.9298 28.6747 27.043 27.0091C27.1104 25.9941 27.055 24.9718 27.055 23.9543H27.0574ZM19.9404 23.3257C19.8297 19.2095 20.8141 20.0582 16.1352 19.9555C15.4276 19.9408 15.1291 20.2221 15.1412 20.9631C15.1724 22.7119 15.1291 24.4606 15.158 26.2069C15.1821 27.7061 16.1592 28.7554 17.4902 28.7798C18.8068 28.8043 19.8441 27.7795 19.9308 26.2876C19.9813 25.3973 19.9404 24.4997 19.9404 23.3257ZM40.271 23.7513C40.2774 21.0691 39.0266 19.8055 36.5187 19.9604C36.4393 19.9653 36.331 19.9335 36.2828 19.9726C36.0133 20.2049 35.5391 20.4471 35.5343 20.6965C35.4837 22.685 35.4452 24.6831 35.5656 26.6667C35.6426 27.9483 36.7642 28.8116 37.9556 28.7798C39.1999 28.7456 40.1939 27.7648 40.2613 26.4343C40.3071 25.5416 40.271 24.6465 40.271 23.7513ZM45.6575 23.0812C45.6575 23.0812 45.6671 23.0812 45.6719 23.0812C45.6719 22.3083 45.8332 21.4914 45.6406 20.7699C45.205 19.141 43.8403 20.2416 42.9233 20.0068C42.3986 19.8723 41.5394 19.6962 41.5394 20.7797C41.5394 22.4061 41.496 24.0375 41.573 25.6615C41.6308 26.8672 42.5141 27.6401 43.6092 27.6352C44.6995 27.6303 45.5443 26.8501 45.643 25.6419C45.7128 24.7932 45.6575 23.9347 45.6575 23.0787V23.0812ZM13.8872 23.2524C13.7933 19.344 14.6502 20.0362 10.7318 19.9628C10.6909 19.9628 10.6356 19.9457 10.6139 19.9677C10.3275 20.2587 9.81482 20.54 9.80038 20.8482C9.72095 22.4306 9.71854 24.0228 9.78834 25.6052C9.84129 26.8208 10.6933 27.6107 11.7836 27.6352C12.9172 27.6597 13.7813 26.8428 13.8752 25.571C13.9329 24.803 13.8848 24.0252 13.8848 23.2524H13.8872ZM46.9331 20.0851C46.9331 21.6479 46.9042 23.1496 46.9427 24.6465C46.9692 25.681 47.6768 26.4196 48.577 26.383C49.5589 26.3438 50.1366 25.7617 50.2545 24.7908C50.3339 24.1475 50.2906 23.4896 50.2906 22.8366C50.2906 20.7006 49.1714 19.7826 46.9331 20.0827V20.0851ZM8.49587 19.9677C7.485 19.9677 6.64501 19.9286 5.81465 19.9922C5.5836 20.0093 5.19128 20.3248 5.18647 20.5107C5.15518 22.0148 5.11667 23.5287 5.24905 25.0231C5.33088 25.9403 6.05534 26.449 6.96994 26.3707C7.86769 26.2949 8.46218 25.7348 8.48624 24.7785C8.52475 23.2401 8.49587 21.6993 8.49587 19.9677Z" fill="#3556D7"/>
<path d="M35.7745 8.84146C35.8082 9.55808 35.4399 10.2845 35.3364 11.0206C35.1896 12.0821 35.0717 13.1534 35.026 14.2222C34.9562 15.8241 32.5325 18.3947 31.0811 18.2626C30.6527 18.2234 30.1978 17.9618 29.8464 17.6829C29.4421 17.3625 29.1773 16.866 28.785 16.5212C27.7549 15.6187 27.4781 14.5108 27.519 13.1534C27.5455 12.29 27.1315 11.4144 26.9462 10.5388C26.8547 10.1084 26.7753 9.6608 26.7873 9.22301C26.8451 6.99246 26.951 4.76192 27.0064 2.52892C27.0521 0.72639 27.7212 0.0220076 29.5023 0.00977872C30.6648 -4.36651e-06 31.8273 -4.36651e-06 32.9922 0.00977872C34.7203 0.0244534 35.411 0.716607 35.4303 2.43599C35.4375 3.2113 35.4303 3.98416 35.4303 4.75947M28.2507 7.46939H34.1956C34.1956 5.66441 34.2413 3.92302 34.1547 2.18896C34.1378 1.87101 33.6035 1.34028 33.281 1.31827C31.9259 1.21799 30.554 1.21799 29.1966 1.31338C28.8644 1.33783 28.3085 1.85145 28.294 2.16206C28.205 3.89856 28.2507 5.64239 28.2507 7.46939ZM34.4098 8.85859H28.1255C27.8271 9.78798 28.0533 10.1891 29.0209 10.1573C30.5324 10.1108 32.0463 10.1108 33.5578 10.1573C34.5494 10.1866 34.7251 9.75374 34.4098 8.85859ZM31.3435 12.449C31.9813 12.449 32.6215 12.4857 33.2521 12.4245C33.4326 12.4074 33.5843 12.1041 33.7479 11.9329C33.577 11.7691 33.4086 11.4682 33.2329 11.4633C31.9596 11.4218 30.684 11.4218 29.4132 11.4609C29.2207 11.4658 29.0353 11.7422 28.8476 11.8913C29.0426 12.0772 29.2231 12.4001 29.4349 12.4245C30.0631 12.4954 30.7057 12.449 31.3435 12.449ZM33.6902 13.7624H28.9655C28.6117 14.7211 29.1918 14.6942 29.7911 14.7089C32.368 14.7741 33.6677 14.4586 33.6902 13.7624ZM30.3134 15.9831C30.2628 16.0907 30.2099 16.2008 30.1593 16.3084C30.5589 16.5383 30.9632 16.9565 31.3579 16.9468C31.7262 16.9394 32.0872 16.4796 32.4506 16.2204C32.3953 16.1397 32.3399 16.0614 32.287 15.9807H30.3134V15.9831Z" fill="#3556D7"/>
</g>
<defs>
<clipPath id="clip0_221_985">
<rect width="56" height="41" fill="white"/>
</clipPath>
</defs>
</svg>
