<svg width="45" height="44" viewBox="0 0 45 44" fill="none" xmlns="http://www.w3.org/2000/svg">
<g clip-path="url(#clip0_221_965)">
<path d="M38.2542 43.9196C33.375 43.9213 28.4975 43.9335 23.6183 43.944H8.69409C6.67121 43.9318 4.64485 43.8638 2.62371 43.9301C1.44471 43.9684 -0.00864318 42.5443 3.8712e-05 41.3294C0.0382391 36.0166 0.010457 30.7038 0.0156661 25.3909C0.0156661 23.8919 1.39956 22.6021 3.2818 22.1123C5.12062 21.6329 6.92125 21.7445 8.73576 22.1541C8.88335 22.1872 9.01706 22.4312 9.17507 22.2151C9.28967 22.0547 9.14034 21.9013 9.09693 21.7392C8.84342 20.805 8.42842 19.9334 7.87452 19.1613C5.37934 15.6821 6.08431 10.3048 9.36954 7.6205C11.0208 6.27138 12.9083 5.67525 15.1048 6.06221C16.223 6.25917 17.2649 6.61824 18.3345 6.94071C20.4633 7.58564 22.5608 7.46363 24.641 6.63567C27.1101 5.65259 29.5654 5.57241 31.9077 7.03483C32.3054 7.28235 32.4686 7.04704 32.6943 6.8187C33.592 5.91405 34.4949 5.01463 35.4725 4.03678C35.1982 3.79973 34.9377 3.57313 34.6755 3.35002C34.3456 3.07113 34.1876 2.70857 34.5366 2.39831C34.8266 2.1386 35.2294 2.16997 35.5385 2.47675C36.0733 3.00664 36.6168 3.52955 37.1256 4.08384C37.3582 4.33659 37.4902 4.31393 37.7055 4.07513C38.0528 3.68817 38.4383 3.33259 38.8046 2.96132C39.1102 2.6528 39.5582 2.3896 39.6798 2.01832C39.8291 1.56164 39.2162 1.38385 38.9783 1.04919C38.7855 0.775527 38.7491 0.505354 38.9349 0.226465C39.178 -0.137833 39.4836 -0.0158193 39.7458 0.179403C40.0427 0.400771 40.317 0.656999 40.5792 0.918458C41.7304 2.0619 42.8851 3.20186 44.0086 4.37145C44.2465 4.61896 44.6788 4.91528 44.2239 5.3615C43.795 5.78332 43.4338 5.61076 43.1439 5.21509C42.642 4.52832 42.2132 4.62942 41.727 5.24297C41.2286 5.86873 40.1746 6.33064 40.2163 7.01217C40.2528 7.60481 41.1956 8.13993 41.7391 8.69945C41.8398 8.80403 41.944 8.90339 42.0378 9.0132C42.3173 9.34438 42.227 9.6285 41.9475 9.91785C41.6401 10.2351 41.4162 10.0991 41.1453 9.85684C40.2285 9.03412 40.2215 9.04109 39.3655 9.90042C38.3219 10.948 37.2923 12.0078 36.2296 13.0344C35.8927 13.3586 35.733 13.6828 35.7573 14.1587C35.8476 16.0342 35.2798 17.7128 34.2206 19.2536C33.7118 19.9927 33.3802 20.8294 33.0989 21.6922C32.901 22.2988 33.1058 22.236 33.5399 22.1262C35.6462 21.5963 37.7194 21.6103 39.7649 22.4609C41.3988 23.1407 42.2635 24.3224 42.267 26.0986C42.2739 30.9757 42.2757 35.8527 42.267 40.7316C42.2635 42.6123 41.2911 43.6878 39.4402 43.9039M21.0154 42.6855C27.0598 42.6855 33.1058 42.6855 39.1502 42.6855C40.3274 42.6855 41.0428 42.0249 41.0463 40.8553C41.0619 35.8615 41.0602 30.8676 41.0463 25.8738C41.0446 25.0632 40.7112 24.4113 39.9732 23.9756C37.735 22.6561 35.4204 22.7398 33.0676 23.5729C32.8124 23.6636 32.6856 23.925 32.6283 24.2545C32.2863 26.2189 32.5762 28.2095 32.321 30.1843C31.9477 33.0656 31.1698 35.7081 28.9681 37.7614C27.3897 39.2343 25.4866 38.9223 24.5108 36.9892C23.6669 35.3194 23.4498 33.5031 23.2779 31.6799C23.1668 30.4981 23.0418 29.3076 22.5452 28.2304C22.2986 27.6953 21.894 27.1636 21.1214 27.1654C20.3521 27.1671 19.9337 27.5471 19.6315 28.2025C19.003 29.5656 18.904 31.0402 18.7894 32.4869C18.6765 33.9145 18.4143 35.3002 17.857 36.5883C17.251 37.9845 16.289 38.863 14.8982 38.673C13.8511 38.5301 13.0854 37.8852 12.4568 37.1112C10.7517 35.0126 10.0155 32.5009 9.77238 29.8776C9.60916 28.1049 9.4199 26.3113 9.57443 24.5212C9.61958 23.9895 9.40427 23.7106 8.95802 23.5503C7.01154 22.8461 5.06158 22.7432 3.09079 23.4753C1.76073 23.9703 1.17557 24.8018 1.20161 26.313C1.28843 31.1604 1.26065 36.0096 1.2155 40.8588C1.20335 42.0702 1.75031 42.7152 3.05954 42.7064C9.04657 42.6646 15.0336 42.6873 21.0206 42.6873L21.0154 42.6855ZM31.4111 8.11378C29.3535 6.88667 27.2924 6.92154 25.1584 7.74251C24.0333 8.17479 22.8803 8.49726 21.6423 8.56175C19.8399 8.65413 18.1817 8.18874 16.5199 7.59784C14.6985 6.95117 12.8388 6.85181 11.1354 7.85407C7.47341 10.005 6.57571 14.7287 8.61248 18.0283C10.104 20.4459 10.7899 22.9472 10.7795 25.7256C10.7708 27.9846 10.8785 30.2471 11.4914 32.4259C12.0036 34.2439 12.6912 36.0218 14.3703 37.1531C15.1395 37.6708 15.8098 37.5383 16.3255 36.7853C17.145 35.5878 17.3673 34.2003 17.534 32.8111C17.7267 31.2145 17.8049 29.6091 18.3883 28.0752C18.7946 27.0068 19.3502 26.137 20.5536 25.9714C21.9722 25.7744 22.9064 26.3287 23.6217 27.7388C24.4639 29.4 24.417 31.2424 24.6479 33.022C24.8129 34.291 25.0925 35.5163 25.7228 36.6267C26.077 37.2524 26.6205 37.7509 27.4157 37.3692C27.8637 37.1531 28.3204 36.8498 28.6295 36.468C30.378 34.3101 31.1246 31.7461 31.2219 29.0322C31.2844 27.3048 31.3191 25.5687 31.4598 23.8501C31.5935 22.2029 31.9598 20.5819 32.8923 19.1403C33.6215 18.0126 34.2953 16.8413 34.5054 15.473C34.5314 15.3039 34.62 15.1296 34.4411 15.0267C34.2796 14.9344 34.1841 15.1121 34.0886 15.2063C33.2708 16.0255 32.4061 16.8064 31.6629 17.6884C31.1125 18.3438 30.3797 18.5338 29.7876 18.213C29.0358 17.8034 28.6295 18.1241 28.1693 18.5338C27.7821 18.8806 27.3324 19.1438 26.8636 18.9434C26.4868 18.783 26.3617 18.9382 26.1586 19.1438C25.3859 19.9282 24.6063 20.7039 23.8266 21.4813C23.528 21.7793 23.1859 22.0687 22.7831 21.7079C22.3368 21.307 22.599 20.9566 22.9428 20.6237C23.587 19.9979 24.2104 19.3513 24.8476 18.7185C25.28 18.2897 25.794 17.9359 25.5491 17.1602C25.4345 16.7994 25.7089 16.4543 25.978 16.1806C26.4121 15.7396 26.6483 15.3265 26.2524 14.6624C25.8721 14.0227 26.1291 13.3918 26.6674 12.8619C28.2544 11.2983 29.8206 9.71216 31.4129 8.11727L31.4111 8.11378ZM36.4067 7.25446C36.2574 7.43574 36.2678 7.75994 35.9639 7.83141C35.6097 7.91333 35.384 7.72508 35.1444 7.48454C34.2814 6.62522 34.3248 6.67402 33.5625 7.66059C33.0242 8.35607 33.7657 8.42405 33.9723 8.71688C34.2414 9.09338 34.3647 9.46291 34.047 9.7906C33.7136 10.1357 33.3732 9.93005 33.0972 9.60758C32.9461 9.43328 32.7759 9.27292 32.6023 9.11953C32.4842 9.01494 32.3575 8.78835 32.1786 8.95394C31.7984 9.30603 31.3504 9.64419 31.1333 10.0887C31.0031 10.3536 31.5344 10.5802 31.7393 10.8504C31.774 10.8957 31.8192 10.9323 31.8626 10.9724C32.1508 11.2391 32.2845 11.5668 31.9859 11.8701C31.7185 12.142 31.3504 12.0932 31.05 11.877C30.8416 11.7271 30.6645 11.5267 30.4909 11.3332C30.3051 11.1258 30.1089 11.1049 29.8779 11.2339C29.0306 11.7062 28.9472 12.2204 29.614 12.8967C29.6748 12.9577 29.7355 13.0205 29.798 13.0797C30.0932 13.3499 30.2061 13.6828 29.8918 13.9704C29.6244 14.2162 29.265 14.2145 28.9576 13.9704C28.8222 13.8641 28.7041 13.7334 28.5843 13.6079C28.3169 13.3255 28.0703 13.0292 27.6658 13.4493C27.2942 13.8345 27.2317 14.1831 27.6397 14.5823C28.3221 15.2516 29.034 15.8983 29.6522 16.6251C30.1679 17.2334 30.6003 17.1219 31.0708 16.6513C33.7535 13.9652 36.4241 11.267 39.1155 8.59138C39.4593 8.24974 39.402 8.06672 39.0859 7.76692C38.3098 7.02786 37.5597 6.26092 36.8148 5.48875C36.4623 5.1227 36.1914 4.85427 35.6965 5.36325C35.2312 5.84259 35.4725 6.11276 35.8268 6.42128C36.0907 6.65136 36.3025 6.91456 36.4032 7.25446H36.4067ZM39.0286 5.92451C39.4054 5.93322 39.5061 5.73277 39.6451 5.59681C40.159 5.08959 40.6469 4.55447 41.1835 4.07339C41.5238 3.76835 41.5377 3.57487 41.1974 3.25415C40.8622 2.93691 40.6174 2.84976 40.2684 3.22103C39.7371 3.79101 39.1675 4.32613 38.6258 4.88739C38.5042 5.01463 38.223 5.14013 38.44 5.37022C38.6466 5.58984 38.7977 5.90882 39.0269 5.92451H39.0286ZM27.1466 17.657C27.598 17.4513 28.0026 17.3084 28.0999 16.9493C28.1745 16.6687 27.8689 16.4212 27.5772 16.3881C27.0476 16.3271 27.0945 16.9546 26.7663 17.1515C26.9 17.3293 27.0337 17.5071 27.1466 17.657Z" fill="#3556D7"/>
</g>
<defs>
<clipPath id="clip0_221_965">
<rect width="45" height="44" fill="white"/>
</clipPath>
</defs>
</svg>
