<svg width="37" height="42" viewBox="0 0 37 42" fill="none" xmlns="http://www.w3.org/2000/svg">
<g clip-path="url(#clip0_221_971)">
<path d="M12.4884 34.5305C11.257 34.5305 10.1557 34.535 9.05451 34.5305C6.12094 34.5146 4.37086 32.7894 4.35944 29.9006C4.35487 28.5105 4.34116 27.1204 4.36858 25.7303C4.37771 25.2729 4.23606 25.0035 3.82939 24.7794C2.72359 24.1681 1.64978 23.5002 0.546264 22.8867C-0.0591827 22.5493 -0.134578 22.1486 0.196704 21.569C1.43045 19.4069 2.6619 17.2448 3.85452 15.06C4.14239 14.5325 4.36629 13.9416 4.47367 13.3552C5.72341 6.61975 10.8983 1.50761 17.7135 0.323535C22.4726 -0.502829 26.9095 0.167318 30.7615 3.25316C36.1214 7.54347 37.8304 15.1143 34.8351 21.569C33.9281 23.5274 32.7492 25.3635 31.6548 27.2336C30.3228 29.5089 29.0137 31.8205 28.7898 34.4807C28.6413 36.2443 28.8058 38.0442 28.9429 39.8192C29.0228 40.8606 28.9429 41.0757 27.8873 41.0757C23.1397 41.0757 18.3944 41.0757 13.6468 41.0757C12.6141 41.0757 12.4884 40.9512 12.4861 39.9166C12.4838 38.1574 12.4861 36.396 12.4861 34.5282L12.4884 34.5305ZM27.5492 39.7468C27.4852 39.1717 27.4167 38.6442 27.3664 38.1167C26.9963 34.2407 28.0975 30.7247 30.0532 27.4215C31.0219 25.7869 32.0158 24.1681 32.9502 22.5131C34.4422 19.8687 35.1778 17.0546 34.9813 13.9891C34.6204 8.34945 30.7044 3.39353 25.2691 1.84495C23.1397 1.2382 20.9761 1.19292 18.7805 1.44648C12.2737 2.19587 7.00056 7.05897 5.77824 13.4186C5.61602 14.2608 5.28474 15.0985 4.88035 15.8592C3.80425 17.8877 2.64819 19.8733 1.49213 21.929C2.64134 22.6014 3.73571 23.2806 4.86893 23.8874C5.47437 24.2111 5.68685 24.6254 5.67086 25.2978C5.62973 26.9279 5.64344 28.558 5.66172 30.1881C5.68228 31.9721 6.91374 33.2015 8.71408 33.2355C10.0072 33.2604 11.3027 33.24 12.5958 33.2423C13.6879 33.2445 13.7861 33.3441 13.7861 34.4467C13.7861 36.2013 13.7861 37.9582 13.7861 39.7468H27.5469H27.5492Z" fill="#3556D7"/>
<path d="M30.5085 14.9172C30.5199 20.5704 25.8934 25.1822 20.1953 25.198C14.4516 25.2139 9.77478 20.6089 9.76564 14.933C9.7565 9.30014 14.415 4.66571 20.0971 4.65213C25.8522 4.63855 30.497 9.21864 30.5085 14.9172ZM29.2062 14.8968C29.1856 9.89784 25.1166 5.91318 20.0582 5.93809C15.1278 5.96299 11.0771 10.0043 11.0679 14.9126C11.0588 19.8776 15.1667 23.9257 20.1953 23.9098C25.1851 23.894 29.2268 19.8504 29.2062 14.8968Z" fill="#3556D7"/>
<path d="M23.0847 12.026C24.0808 12.026 24.9901 12.0509 25.8994 12.017C26.6397 11.9898 26.9116 12.3045 26.8933 13.0199C26.8636 14.3014 26.8681 15.585 26.8933 16.8665C26.907 17.5434 26.642 17.8513 25.9428 17.8309C25.0335 17.8038 24.1196 17.8242 23.087 17.8242C23.087 18.7932 23.0641 19.6897 23.0938 20.5862C23.1189 21.347 22.7785 21.6413 22.0246 21.6254C20.7863 21.596 19.5457 21.6254 18.3051 21.6164C17.3912 21.6118 17.2084 21.433 17.2016 20.5455C17.1924 19.6693 17.2016 18.7954 17.2016 17.8264C16.2397 17.8264 15.3578 17.797 14.4782 17.8355C13.7288 17.8672 13.3884 17.6068 13.4112 16.8235C13.4501 15.542 13.4386 14.2583 13.4135 12.9769C13.3998 12.3 13.6625 11.9943 14.364 12.017C15.2733 12.0464 16.1849 12.0238 17.1993 12.0238C17.1993 11.0819 17.1947 10.2103 17.1993 9.33864C17.2061 8.42624 17.382 8.23833 18.2685 8.23154C19.5342 8.22248 20.8023 8.24512 22.068 8.22248C22.7854 8.21116 23.1098 8.50322 23.0892 9.22318C23.0664 10.1243 23.0824 11.0276 23.0824 12.0238L23.0847 12.026ZM25.5499 13.3142C24.62 13.3142 23.7609 13.3188 22.9042 13.3142C21.9263 13.3097 21.7915 13.1761 21.7847 12.1913C21.7778 11.3197 21.7847 10.448 21.7847 9.59447H18.4993C18.4993 10.4684 18.4993 11.2676 18.4993 12.069C18.497 13.2373 18.4216 13.3142 17.2724 13.3165C16.4453 13.3165 15.6183 13.3165 14.7729 13.3165V16.5405C15.6845 16.5405 16.5436 16.5359 17.4026 16.5405C18.3645 16.545 18.4901 16.665 18.497 17.5932C18.5038 18.4671 18.497 19.3433 18.497 20.2738H21.7824C21.7824 19.3297 21.7984 18.4286 21.7778 17.5276C21.7595 16.8121 22.068 16.5065 22.7968 16.5314C23.7038 16.5631 24.6109 16.5382 25.5499 16.5382V13.312V13.3142Z" fill="#3556D7"/>
</g>
<defs>
<clipPath id="clip0_221_971">
<rect width="37" height="42" fill="white"/>
</clipPath>
</defs>
</svg>
