<svg width="17" height="9" viewBox="0 0 17 9" fill="none" xmlns="http://www.w3.org/2000/svg">
<path d="M1.43332 0.24186C1.35222 0.164603 1.25681 0.104205 1.15256 0.0641145C1.0483 0.0240249 0.937226 0.00502678 0.825685 0.00820729C0.714144 0.0113887 0.604316 0.036685 0.502473 0.0826521C0.40063 0.12862 0.308766 0.194359 0.232125 0.276114C0.155485 0.357871 0.0955691 0.454044 0.0557993 0.559142C0.0160295 0.664241 -0.0028159 0.776205 0.000339448 0.888645C0.00349479 1.00109 0.0285889 1.1118 0.0741891 1.21446C0.119789 1.31713 0.185002 1.40973 0.266105 1.48699L7.91162 8.76592C8.06934 8.91624 8.27817 9 8.49523 9C8.71228 9 8.92111 8.91624 9.07883 8.76592L16.7252 1.48699C16.8081 1.41024 16.875 1.31765 16.9221 1.21461C16.9692 1.11157 16.9955 1.00013 16.9995 0.886752C17.0035 0.773377 16.9851 0.660331 16.9454 0.554181C16.9056 0.448032 16.8454 0.350893 16.7681 0.268409C16.6909 0.185926 16.5981 0.119741 16.4953 0.0736973C16.3924 0.0276549 16.2815 0.00267339 16.169 0.00020338C16.0565 -0.00226663 15.9446 0.0178244 15.8399 0.0593093C15.7351 0.100794 15.6396 0.162846 15.5588 0.24186L8.49523 6.96589L1.43332 0.24186Z" fill="#3556D7"/>
</svg>
