<svg width="19" height="14" viewBox="0 0 19 14" fill="none" xmlns="http://www.w3.org/2000/svg">
<path d="M6.49795 10.9443L16.9112 0.374165C17.1569 0.124722 17.4436 0 17.7713 0C18.099 0 18.3856 0.124722 18.6314 0.374165C18.8771 0.623608 19 0.92003 19 1.26343C19 1.60683 18.8771 1.90284 18.6314 2.15145L7.35804 13.6258C7.1123 13.8753 6.8256 14 6.49795 14C6.17029 14 5.8836 13.8753 5.63786 13.6258L0.354434 8.26281C0.108693 8.01336 -0.00926253 7.71736 0.000567093 7.37479C0.0103967 7.03222 0.138591 6.7358 0.385151 6.48552C0.63171 6.23525 0.923733 6.11053 1.26122 6.11136C1.5987 6.11219 1.89031 6.23691 2.13605 6.48552L6.49795 10.9443Z" fill="white"/>
</svg>
