<svg width="20" height="22" viewBox="0 0 20 22" fill="none" xmlns="http://www.w3.org/2000/svg">
<path d="M6.19283 14.5375C5.74092 13.8517 5.31886 13.2071 4.89395 12.5646C4.49249 11.9571 4.06403 11.3647 3.68886 10.7421C1.35683 6.86838 3.19502 1.97279 7.55354 0.422469C11.3152 -0.915503 15.5316 1.02926 16.8966 4.77724C17.6867 6.9474 17.4217 9.03579 16.1441 10.9888C15.3795 12.1577 14.6036 13.3205 13.8078 14.5244C14.3606 14.6392 14.8779 14.7313 15.3866 14.855C16.6415 15.1608 17.87 15.5326 18.9188 16.3084C19.3394 16.6197 19.6883 16.9928 19.8695 17.4821C20.1757 18.3088 19.9235 19.0194 19.3167 19.6186C18.5237 20.4013 17.5091 20.8171 16.4503 21.1346C13.9094 21.8967 11.3017 22.0891 8.65773 21.9654C6.80533 21.8788 4.9849 21.6232 3.22629 21.037C2.36013 20.7484 1.53092 20.3842 0.844526 19.7781C-0.273169 18.7912 -0.283117 17.5137 0.824631 16.5228C1.04064 16.3297 1.2808 16.1565 1.53092 16.0067C2.66424 15.3278 3.9276 14.991 5.21441 14.7189C5.51426 14.6557 5.81695 14.6062 6.19355 14.5361L6.19283 14.5375ZM9.99357 17.8931C10.0845 17.7625 10.1392 17.6883 10.1904 17.612C11.8268 15.1354 13.4717 12.6635 15.0946 10.1793C15.8904 8.96089 16.1455 7.62223 15.9018 6.19973C15.3525 2.99808 12.3519 0.895261 9.03361 1.38386C4.84208 2.00096 2.63369 6.75636 4.92735 10.226C6.06067 11.9413 7.194 13.6572 8.32733 15.3724C8.87303 16.1984 9.41944 17.0245 9.99357 17.8931ZM9.96088 20.7058C12.067 20.7147 14.1432 20.5092 16.1562 19.875C16.9342 19.6296 17.6952 19.3348 18.302 18.7761C18.7653 18.3494 18.788 17.9446 18.3241 17.5405C17.9944 17.254 17.6128 17.0032 17.2156 16.8128C15.9615 16.2122 14.6022 15.9538 13.2273 15.7744C13.1122 15.7593 12.9267 15.8803 12.8542 15.9889C12.1174 17.0815 11.3976 18.1851 10.6721 19.284C10.2572 19.9121 9.74061 19.9127 9.32636 19.2853C8.60018 18.1858 7.87186 17.0877 7.15563 15.9827C7.0391 15.8026 6.91973 15.7229 6.69875 15.7683C5.93633 15.9256 5.16396 16.0445 4.40935 16.2328C3.46717 16.4678 2.55269 16.7908 1.79595 17.4134C1.19127 17.9109 1.16854 18.4044 1.80661 18.8558C2.31465 19.2152 2.88665 19.5231 3.47569 19.7375C5.56258 20.4982 7.74894 20.7003 9.9623 20.7051L9.96088 20.7058Z" fill="#3455D7"/>
<path d="M10.013 4.4011C11.8397 4.40533 13.331 5.88112 13.3332 7.68769C13.336 9.49425 11.8014 11.013 9.98672 11.0003C8.17415 10.9876 6.67006 9.49214 6.66651 7.69684C6.66226 5.8776 8.16635 4.39618 10.0122 4.4004L10.013 4.4011ZM9.99239 5.7277C8.8918 5.73052 8.01743 6.59896 8.01672 7.6905C8.01601 8.77289 8.90173 9.66316 9.99027 9.67442C11.0809 9.68568 11.9922 8.77219 11.9844 7.67572C11.9766 6.58489 11.0972 5.72489 9.9931 5.7277H9.99239Z" fill="#3455D7"/>
</svg>
