<svg width="21" height="21" viewBox="0 0 21 21" fill="none" xmlns="http://www.w3.org/2000/svg">
<path d="M16.0558 20.9638C15.8611 20.9634 15.6671 20.9415 15.477 20.8987C11.8572 20.1333 8.52239 18.3379 5.85667 15.7192C3.24739 13.0953 1.43786 9.75405 0.647132 6.1001C0.553859 5.64472 0.576752 5.17246 0.713609 4.72875C0.850465 4.28504 1.09668 3.88481 1.42856 3.56658L3.74392 1.28759C3.86218 1.17322 4.00269 1.08564 4.15629 1.03056C4.30989 0.97548 4.47312 0.954144 4.63533 0.967942C4.80352 0.985886 4.96582 1.04129 5.11082 1.13026C5.25583 1.21924 5.38001 1.33961 5.47464 1.48293L8.36883 5.8574C8.47737 6.02714 8.52976 6.22802 8.51829 6.43048C8.50683 6.63295 8.43212 6.8263 8.30516 6.9821L6.85228 8.75793C7.43041 10.0679 8.24993 11.2516 9.26603 12.2445C10.2755 13.2733 11.4681 14.0951 12.7796 14.6655L14.5798 13.2034C14.731 13.0812 14.9149 13.009 15.1073 12.9963C15.2996 12.9836 15.4911 13.0311 15.6564 13.1324L20.0266 16.0211C20.1766 16.1127 20.3044 16.2378 20.4004 16.387C20.4963 16.5362 20.5581 16.7057 20.5809 16.8828C20.6037 17.0599 20.5871 17.24 20.5322 17.4096C20.4773 17.5792 20.3856 17.7338 20.264 17.862L18.0065 20.1469C17.7501 20.4079 17.4457 20.6144 17.1109 20.7546C16.7761 20.8948 16.4176 20.9659 16.0558 20.9638ZM4.54271 2.13999L2.22736 4.41898C2.04066 4.59689 1.90245 4.82143 1.82633 5.07052C1.75021 5.31961 1.73881 5.58468 1.79323 5.83964C2.52877 9.26827 4.21956 12.4057 6.66126 14.8727C9.17006 17.3361 12.3082 19.0248 15.7143 19.7444C15.9721 19.7995 16.2393 19.7884 16.4918 19.7119C16.7444 19.6355 16.9744 19.4961 17.1614 19.3064L19.4188 17.0215L15.1991 14.2334L13.2658 15.808C13.1918 15.8679 13.1046 15.9084 13.0118 15.9259C12.9189 15.9435 12.8233 15.9375 12.7333 15.9086C11.1283 15.3031 9.6737 14.343 8.47302 13.0969C7.23177 11.9112 6.26819 10.4544 5.65408 8.83488C5.62811 8.73684 5.62725 8.6336 5.65158 8.53512C5.67591 8.43663 5.72461 8.3462 5.793 8.27254L7.35586 6.36056L4.54271 2.13999Z" fill="#3455D7"/>
</svg>
