<svg width="30" height="30" viewBox="0 0 30 30" fill="none" xmlns="http://www.w3.org/2000/svg">
<g clip-path="url(#clip0_205_530)">
<path d="M14.1812 23.3461C13.6045 24.6078 13.1734 25.7423 12.5906 26.7871C11.3481 29.0186 9.1504 29.7422 7.17936 28.639C6.05016 28.0071 5.30545 26.9978 4.99178 25.7611C4.52432 23.9238 4.04471 22.0594 3.88079 20.1762C3.70069 18.0991 3.24941 16.1596 2.40554 14.2744C1.70333 12.704 0.914104 11.1211 0.553892 9.45486C-0.130105 6.2933 1.418 3.05041 4.11958 1.35284C6.79891 -0.330123 10.2634 -0.165371 12.7768 1.76368C13.705 2.47552 14.6467 2.46787 15.6018 1.74074C18.3945 -0.384345 22.2678 -0.315525 25.0058 1.91175C27.7823 4.16822 28.6787 7.90745 27.25 11.2734C27.1833 11.4319 27.1367 11.6071 27.0416 11.7468C26.5235 12.5017 26.7219 13.0064 27.3634 13.6571C31.0525 17.4046 29.3526 23.9134 24.3481 25.2856C23.7329 25.4545 23.399 25.7194 23.1359 26.3283C22.4519 27.9195 21.3268 28.9873 19.5379 29.0978C17.6781 29.2104 16.4842 28.1865 15.6646 26.614C15.1425 25.6109 14.7236 24.5515 14.1812 23.3482V23.3461ZM25.5299 12.1284C25.7181 11.7009 25.9164 11.265 26.1067 10.825C27.3472 7.93248 26.6085 4.82305 24.2226 2.88357C21.9116 1.00457 18.611 0.977462 16.2413 2.81892C14.3917 4.25789 13.9728 4.25581 12.0867 2.80224C9.70286 0.967034 6.42049 1.00666 4.10542 2.89817C1.72357 4.84808 1.00315 7.9429 2.24972 10.85C2.57755 11.6112 2.87908 12.3849 3.23727 13.1294C4.3604 15.4589 4.96143 17.8906 5.13951 20.5099C5.26295 22.3117 5.82351 24.1031 6.3618 25.8424C6.73011 27.027 7.63064 27.7777 8.93792 27.8445C10.2371 27.9112 11.0203 27.1521 11.5687 26.0864C12.0402 25.1688 12.3397 24.1511 12.8638 23.271C13.139 22.8081 13.736 22.2659 14.1833 22.27C14.6325 22.2742 15.2153 22.8248 15.4905 23.2919C16.0288 24.2032 16.3506 25.2481 16.8403 26.1949C17.4231 27.3189 18.3095 28.0009 19.6309 27.8257C20.916 27.6568 21.6222 26.8017 22.0877 25.6339C17.3543 24.4118 14.9725 20.9854 15.958 16.8708C16.9617 12.6852 20.5821 10.8751 25.5319 12.1284H25.5299ZM22.5835 24.2804C25.6736 24.2742 28.1506 21.684 28.1202 18.4995C28.0899 15.3484 25.6311 12.8208 22.5875 12.8104C19.5136 12.7999 16.984 15.388 16.982 18.5496C16.982 21.7132 19.4974 24.2887 22.5855 24.2825L22.5835 24.2804Z" fill="white"/>
<path d="M21.9622 17.9427C21.9622 17.2087 21.8994 16.6435 21.9885 16.1055C22.031 15.8406 22.3548 15.6258 22.551 15.3901C22.7575 15.6195 23.1015 15.826 23.142 16.0825C23.233 16.6477 23.1703 17.2399 23.1703 17.949C23.8401 17.949 24.4169 17.8864 24.9673 17.9782C25.2081 18.0178 25.3983 18.3744 25.6128 18.5871C25.4125 18.7832 25.2304 19.1127 25.0078 19.1461C24.4513 19.2274 23.8745 19.1732 23.1723 19.1732C23.1723 19.853 23.233 20.4411 23.146 21.0063C23.1055 21.2691 22.7716 21.4839 22.5713 21.7195C22.3689 21.488 22.037 21.2795 21.9925 21.0209C21.9015 20.4849 21.9662 19.9239 21.9662 19.1878C21.349 19.1878 20.7783 19.2608 20.242 19.1565C19.9709 19.1043 19.7564 18.731 19.5176 18.5016C19.7584 18.316 19.981 18.0116 20.2461 17.9678C20.7662 17.8823 21.3085 17.9427 21.9662 17.9427H21.9622Z" fill="white"/>
</g>
<defs>
<clipPath id="clip0_205_530">
<rect width="28.9545" height="28.9545" fill="white" transform="translate(0.393555 0.193359)"/>
</clipPath>
</defs>
</svg>
